<svg width="365" height="313" viewBox="0 0 365 313" fill="none" xmlns="http://www.w3.org/2000/svg">
<g filter="url(#filter0_d_9_259)">
<rect x="22" y="22" width="321" height="269" rx="30" fill="white"/>
</g>
<rect x="47" y="84" width="29" height="26" rx="4" fill="#EEEEEE"/>
<rect x="88" y="84" width="29" height="26" rx="4" fill="#EEEEEE"/>
<rect x="129" y="84" width="29" height="26" rx="4" fill="#EEEEEE"/>
<rect x="170" y="84" width="29" height="26" rx="4" fill="#EEEEEE"/>
<rect x="211" y="84" width="29" height="26" rx="4" fill="#EEEEEE"/>
<rect x="252" y="84" width="29" height="26" rx="4" fill="#EEEEEE"/>
<rect x="293" y="84" width="29" height="26" rx="4" fill="#EEEEEE"/>
<rect x="47" y="123" width="29" height="26" rx="4" fill="#EEEEEE"/>
<rect x="47" y="162" width="29" height="26" rx="4" fill="#EEEEEE"/>
<rect x="47" y="201" width="29" height="26" rx="4" fill="#EEEEEE"/>
<rect x="47" y="240" width="29" height="26" rx="4" fill="#EEEEEE"/>
<rect x="88" y="123" width="29" height="26" rx="4" fill="#EEEEEE"/>
<rect x="88" y="201" width="29" height="26" rx="4" fill="#EEEEEE"/>
<rect x="88" y="162" width="29" height="26" rx="4" fill="#EEEEEE"/>
<rect x="88" y="240" width="29" height="26" rx="4" fill="#EEEEEE"/>
<rect x="129" y="123" width="29" height="26" rx="4" fill="#EEEEEE"/>
<rect x="129" y="162" width="29" height="26" rx="4" fill="#EEEEEE"/>
<rect x="129" y="201" width="29" height="26" rx="4" fill="#EEEEEE"/>
<rect x="129" y="240" width="29" height="26" rx="4" fill="#EEEEEE"/>
<rect x="170" y="123" width="29" height="26" rx="4" fill="#EEEEEE"/>
<rect x="170" y="162" width="29" height="26" rx="4" fill="#EEEEEE"/>
<rect x="170" y="201" width="29" height="26" rx="4" fill="#EEEEEE"/>
<rect x="211" y="123" width="29" height="26" rx="4" fill="#EEEEEE"/>
<rect x="211" y="162" width="29" height="26" rx="4" fill="#EEEEEE"/>
<rect x="211" y="201" width="29" height="26" rx="4" fill="#EEEEEE"/>
<rect x="252" y="123" width="29" height="26" rx="4" fill="#EEEEEE"/>
<rect x="252" y="162" width="29" height="26" rx="4" fill="#EEEEEE"/>
<rect x="252" y="201" width="29" height="26" rx="4" fill="#EEEEEE"/>
<rect x="293" y="123" width="29" height="26" rx="4" fill="#EEEEEE"/>
<rect x="293" y="162" width="29" height="26" rx="4" fill="#EEEEEE"/>
<rect x="293" y="201" width="29" height="26" rx="4" fill="#EEEEEE"/>
<path d="M41.5 69.5H326" stroke="#EEEEEE"/>
<path d="M145.2 42.768C146.384 42.768 147.419 43.0027 148.304 43.472C149.189 43.9413 149.872 44.6027 150.352 45.456C150.843 46.2987 151.088 47.2747 151.088 48.384C151.088 49.4827 150.843 50.4587 150.352 51.312C149.872 52.1653 149.184 52.8267 148.288 53.296C147.403 53.7653 146.373 54 145.2 54H140.992V42.768H145.2ZM145.024 51.632C146.059 51.632 146.864 51.3493 147.44 50.784C148.016 50.2187 148.304 49.4187 148.304 48.384C148.304 47.3493 148.016 46.544 147.44 45.968C146.864 45.392 146.059 45.104 145.024 45.104H143.728V51.632H145.024ZM161.033 49.392C161.033 49.648 161.017 49.9147 160.985 50.192H154.793C154.836 50.7467 155.012 51.1733 155.321 51.472C155.641 51.76 156.03 51.904 156.489 51.904C157.172 51.904 157.646 51.616 157.913 51.04H160.825C160.676 51.6267 160.404 52.1547 160.009 52.624C159.625 53.0933 159.14 53.4613 158.553 53.728C157.966 53.9947 157.31 54.128 156.585 54.128C155.71 54.128 154.932 53.9413 154.249 53.568C153.566 53.1947 153.033 52.6613 152.649 51.968C152.265 51.2747 152.073 50.464 152.073 49.536C152.073 48.608 152.26 47.7973 152.633 47.104C153.017 46.4107 153.55 45.8773 154.233 45.504C154.916 45.1307 155.7 44.944 156.585 44.944C157.449 44.944 158.217 45.1253 158.889 45.488C159.561 45.8507 160.084 46.368 160.457 47.04C160.841 47.712 161.033 48.496 161.033 49.392ZM158.233 48.672C158.233 48.2027 158.073 47.8293 157.753 47.552C157.433 47.2747 157.033 47.136 156.553 47.136C156.094 47.136 155.705 47.2693 155.385 47.536C155.076 47.8027 154.884 48.1813 154.809 48.672H158.233ZM161.932 49.536C161.932 48.608 162.119 47.7973 162.492 47.104C162.876 46.4107 163.404 45.8773 164.076 45.504C164.759 45.1307 165.538 44.944 166.412 44.944C167.532 44.944 168.466 45.2373 169.212 45.824C169.97 46.4107 170.466 47.2373 170.7 48.304H167.788C167.543 47.6213 167.068 47.28 166.364 47.28C165.863 47.28 165.463 47.4773 165.164 47.872C164.866 48.256 164.716 48.8107 164.716 49.536C164.716 50.2613 164.866 50.8213 165.164 51.216C165.463 51.6 165.863 51.792 166.364 51.792C167.068 51.792 167.543 51.4507 167.788 50.768H170.7C170.466 51.8133 169.97 52.6347 169.212 53.232C168.455 53.8293 167.522 54.128 166.412 54.128C165.538 54.128 164.759 53.9413 164.076 53.568C163.404 53.1947 162.876 52.6613 162.492 51.968C162.119 51.2747 161.932 50.464 161.932 49.536ZM180.58 49.392C180.58 49.648 180.564 49.9147 180.532 50.192H174.34C174.383 50.7467 174.559 51.1733 174.868 51.472C175.188 51.76 175.577 51.904 176.036 51.904C176.719 51.904 177.193 51.616 177.46 51.04H180.372C180.223 51.6267 179.951 52.1547 179.556 52.624C179.172 53.0933 178.687 53.4613 178.1 53.728C177.513 53.9947 176.857 54.128 176.132 54.128C175.257 54.128 174.479 53.9413 173.796 53.568C173.113 53.1947 172.58 52.6613 172.196 51.968C171.812 51.2747 171.62 50.464 171.62 49.536C171.62 48.608 171.807 47.7973 172.18 47.104C172.564 46.4107 173.097 45.8773 173.78 45.504C174.463 45.1307 175.247 44.944 176.132 44.944C176.996 44.944 177.764 45.1253 178.436 45.488C179.108 45.8507 179.631 46.368 180.004 47.04C180.388 47.712 180.58 48.496 180.58 49.392ZM177.78 48.672C177.78 48.2027 177.62 47.8293 177.3 47.552C176.98 47.2747 176.58 47.136 176.1 47.136C175.641 47.136 175.252 47.2693 174.932 47.536C174.623 47.8027 174.431 48.1813 174.356 48.672H177.78ZM193.415 44.976C194.525 44.976 195.405 45.312 196.055 45.984C196.717 46.656 197.047 47.5893 197.047 48.784V54H194.327V49.152C194.327 48.576 194.173 48.1333 193.863 47.824C193.565 47.504 193.149 47.344 192.615 47.344C192.082 47.344 191.661 47.504 191.351 47.824C191.053 48.1333 190.903 48.576 190.903 49.152V54H188.183V49.152C188.183 48.576 188.029 48.1333 187.719 47.824C187.421 47.504 187.005 47.344 186.471 47.344C185.938 47.344 185.517 47.504 185.207 47.824C184.909 48.1333 184.759 48.576 184.759 49.152V54H182.023V45.072H184.759V46.192C185.037 45.8187 185.399 45.5253 185.847 45.312C186.295 45.088 186.802 44.976 187.367 44.976C188.039 44.976 188.637 45.12 189.159 45.408C189.693 45.696 190.109 46.1067 190.407 46.64C190.717 46.1493 191.138 45.7493 191.671 45.44C192.205 45.1307 192.786 44.976 193.415 44.976ZM201.697 46.336C201.953 45.92 202.321 45.584 202.801 45.328C203.281 45.072 203.83 44.944 204.449 44.944C205.185 44.944 205.851 45.1307 206.449 45.504C207.046 45.8773 207.515 46.4107 207.857 47.104C208.209 47.7973 208.385 48.6027 208.385 49.52C208.385 50.4373 208.209 51.248 207.857 51.952C207.515 52.6453 207.046 53.184 206.449 53.568C205.851 53.9413 205.185 54.128 204.449 54.128C203.819 54.128 203.27 54.0053 202.801 53.76C202.331 53.504 201.963 53.168 201.697 52.752V54H198.961V42.16H201.697V46.336ZM205.601 49.52C205.601 48.8373 205.409 48.304 205.025 47.92C204.651 47.5253 204.187 47.328 203.633 47.328C203.089 47.328 202.625 47.5253 202.241 47.92C201.867 48.3147 201.681 48.8533 201.681 49.536C201.681 50.2187 201.867 50.7573 202.241 51.152C202.625 51.5467 203.089 51.744 203.633 51.744C204.177 51.744 204.641 51.5467 205.025 51.152C205.409 50.7467 205.601 50.2027 205.601 49.52ZM212.556 46.56C212.876 46.0693 213.276 45.6853 213.756 45.408C214.236 45.12 214.769 44.976 215.356 44.976V47.872H214.604C213.921 47.872 213.409 48.0213 213.068 48.32C212.727 48.608 212.556 49.12 212.556 49.856V54H209.82V45.072H212.556V46.56ZM225.08 49.392C225.08 49.648 225.064 49.9147 225.032 50.192H218.84C218.883 50.7467 219.059 51.1733 219.368 51.472C219.688 51.76 220.077 51.904 220.536 51.904C221.219 51.904 221.693 51.616 221.96 51.04H224.872C224.723 51.6267 224.451 52.1547 224.056 52.624C223.672 53.0933 223.187 53.4613 222.6 53.728C222.013 53.9947 221.357 54.128 220.632 54.128C219.757 54.128 218.979 53.9413 218.296 53.568C217.613 53.1947 217.08 52.6613 216.696 51.968C216.312 51.2747 216.12 50.464 216.12 49.536C216.12 48.608 216.307 47.7973 216.68 47.104C217.064 46.4107 217.597 45.8773 218.28 45.504C218.963 45.1307 219.747 44.944 220.632 44.944C221.496 44.944 222.264 45.1253 222.936 45.488C223.608 45.8507 224.131 46.368 224.504 47.04C224.888 47.712 225.08 48.496 225.08 49.392ZM222.28 48.672C222.28 48.2027 222.12 47.8293 221.8 47.552C221.48 47.2747 221.08 47.136 220.6 47.136C220.141 47.136 219.752 47.2693 219.432 47.536C219.123 47.8027 218.931 48.1813 218.856 48.672H222.28Z" fill="#929292"/>
<defs>
<filter id="filter0_d_9_259" x="0" y="0" width="365" height="313" filterUnits="userSpaceOnUse" color-interpolation-filters="sRGB">
<feFlood flood-opacity="0" result="BackgroundImageFix"/>
<feColorMatrix in="SourceAlpha" type="matrix" values="0 0 0 0 0 0 0 0 0 0 0 0 0 0 0 0 0 0 127 0" result="hardAlpha"/>
<feMorphology radius="6" operator="dilate" in="SourceAlpha" result="effect1_dropShadow_9_259"/>
<feOffset/>
<feGaussianBlur stdDeviation="8"/>
<feComposite in2="hardAlpha" operator="out"/>
<feColorMatrix type="matrix" values="0 0 0 0 0 0 0 0 0 0 0 0 0 0 0 0 0 0 0.1 0"/>
<feBlend mode="normal" in2="BackgroundImageFix" result="effect1_dropShadow_9_259"/>
<feBlend mode="normal" in="SourceGraphic" in2="effect1_dropShadow_9_259" result="shape"/>
</filter>
</defs>
</svg>
