<svg width="366" height="265" viewBox="0 0 366 265" fill="none" xmlns="http://www.w3.org/2000/svg">
<rect width="14.9172" height="14.9172" rx="2" fill="#EEEEEE" fill-opacity="0.53"/>
<rect x="50.0166" width="14.9172" height="14.9172" rx="2" fill="#EEEEEE" fill-opacity="0.53"/>
<rect x="100.033" width="14.9172" height="14.9172" rx="2" fill="#EEEEEE" fill-opacity="0.53"/>
<rect x="150.05" width="14.9172" height="14.9172" rx="2" fill="#EEEEEE" fill-opacity="0.53"/>
<rect x="200.066" width="14.9172" height="14.9172" rx="2" fill="#EEEEEE" fill-opacity="0.53"/>
<rect x="250.083" width="14.9172" height="14.9172" rx="2" fill="#EEEEEE" fill-opacity="0.53"/>
<rect x="300.099" width="14.9172" height="14.9172" rx="2" fill="#EEEEEE" fill-opacity="0.53"/>
<rect x="350.116" width="14.9172" height="14.9172" rx="2" fill="#EEEEEE" fill-opacity="0.53"/>
<rect y="50.0166" width="14.9172" height="14.9172" rx="2" fill="#EEEEEE" fill-opacity="0.53"/>
<rect y="100.033" width="14.9172" height="14.9172" rx="2" fill="#EEEEEE" fill-opacity="0.53"/>
<rect y="150.05" width="14.9172" height="14.9172" rx="2" fill="#EEEEEE" fill-opacity="0.53"/>
<rect y="200.066" width="14.9172" height="14.9172" rx="2" fill="#EEEEEE" fill-opacity="0.53"/>
<rect y="250.083" width="14.9172" height="14.9172" rx="2" fill="#EEEEEE" fill-opacity="0.53"/>
<rect x="50.0166" y="50.0166" width="14.9172" height="14.9172" rx="2" fill="#EEEEEE" fill-opacity="0.53"/>
<rect x="50.0166" y="100.033" width="14.9172" height="14.9172" rx="2" fill="#EEEEEE" fill-opacity="0.53"/>
<rect x="50.0166" y="150.05" width="14.9172" height="14.9172" rx="2" fill="#EEEEEE" fill-opacity="0.53"/>
<rect x="50.0166" y="200.066" width="14.9172" height="14.9172" rx="2" fill="#EEEEEE" fill-opacity="0.53"/>
<rect x="50.0166" y="250.083" width="14.9172" height="14.9172" rx="2" fill="#EEEEEE" fill-opacity="0.53"/>
<rect x="100.033" y="50.0166" width="14.9172" height="14.9172" rx="2" fill="#EEEEEE" fill-opacity="0.53"/>
<rect x="100.033" y="100.033" width="14.9172" height="14.9172" rx="2" fill="#EEEEEE" fill-opacity="0.53"/>
<rect x="100.033" y="150.05" width="14.9172" height="14.9172" rx="2" fill="#EEEEEE" fill-opacity="0.53"/>
<rect x="100.033" y="200.066" width="14.9172" height="14.9172" rx="2" fill="#EEEEEE" fill-opacity="0.53"/>
<rect x="100.033" y="250.083" width="14.9172" height="14.9172" rx="2" fill="#EEEEEE" fill-opacity="0.53"/>
<rect x="150.05" y="50.0166" width="14.9172" height="14.9172" rx="2" fill="#EEEEEE" fill-opacity="0.53"/>
<rect x="150.05" y="100.033" width="14.9172" height="14.9172" rx="2" fill="#EEEEEE" fill-opacity="0.53"/>
<rect x="150.05" y="150.05" width="14.9172" height="14.9172" rx="2" fill="#EEEEEE" fill-opacity="0.53"/>
<rect x="150.05" y="200.066" width="14.9172" height="14.9172" rx="2" fill="#EEEEEE" fill-opacity="0.53"/>
<rect x="150.05" y="250.083" width="14.9172" height="14.9172" rx="2" fill="#EEEEEE" fill-opacity="0.53"/>
<rect x="200.066" y="50.0166" width="14.9172" height="14.9172" rx="2" fill="#EEEEEE" fill-opacity="0.53"/>
<rect x="200.066" y="100.033" width="14.9172" height="14.9172" rx="2" fill="#EEEEEE" fill-opacity="0.53"/>
<rect x="200.066" y="150.05" width="14.9172" height="14.9172" rx="2" fill="#EEEEEE" fill-opacity="0.53"/>
<rect x="200.066" y="200.066" width="14.9172" height="14.9172" rx="2" fill="#EEEEEE" fill-opacity="0.53"/>
<rect x="200.066" y="250.083" width="14.9172" height="14.9172" rx="2" fill="#EEEEEE" fill-opacity="0.53"/>
<rect x="250.083" y="50.0166" width="14.9172" height="14.9172" rx="2" fill="#EEEEEE" fill-opacity="0.53"/>
<rect x="250.083" y="100.033" width="14.9172" height="14.9172" rx="2" fill="#EEEEEE" fill-opacity="0.53"/>
<rect x="250.083" y="150.05" width="14.9172" height="14.9172" rx="2" fill="#EEEEEE" fill-opacity="0.53"/>
<rect x="250.083" y="200.066" width="14.9172" height="14.9172" rx="2" fill="#EEEEEE" fill-opacity="0.53"/>
<rect x="250.083" y="250.083" width="14.9172" height="14.9172" rx="2" fill="#EEEEEE" fill-opacity="0.53"/>
<rect x="300.099" y="50.0166" width="14.9172" height="14.9172" rx="2" fill="#EEEEEE" fill-opacity="0.53"/>
<rect x="300.099" y="100.033" width="14.9172" height="14.9172" rx="2" fill="#EEEEEE" fill-opacity="0.53"/>
<rect x="300.099" y="150.05" width="14.9172" height="14.9172" rx="2" fill="#EEEEEE" fill-opacity="0.53"/>
<rect x="300.099" y="200.066" width="14.9172" height="14.9172" rx="2" fill="#EEEEEE" fill-opacity="0.53"/>
<rect x="300.099" y="250.083" width="14.9172" height="14.9172" rx="2" fill="#EEEEEE" fill-opacity="0.53"/>
<rect x="350.116" y="50.0166" width="14.9172" height="14.9172" rx="2" fill="#EEEEEE" fill-opacity="0.53"/>
<rect x="350.116" y="100.033" width="14.9172" height="14.9172" rx="2" fill="#EEEEEE" fill-opacity="0.53"/>
<rect x="350.116" y="150.05" width="14.9172" height="14.9172" rx="2" fill="#EEEEEE" fill-opacity="0.53"/>
<rect x="350.116" y="200.066" width="14.9172" height="14.9172" rx="2" fill="#EEEEEE" fill-opacity="0.53"/>
<rect x="350.116" y="250.083" width="14.9172" height="14.9172" rx="2" fill="#EEEEEE" fill-opacity="0.53"/>
</svg>
